<?xml version="1.0" encoding="UTF-8"?>
<svg id="Capa_1" data-name="Capa 1" xmlns="http://www.w3.org/2000/svg" viewBox="0 0 632.03 144.2">
  <defs>
    <style>
      .cls-1 {
        fill: #e01a27;
      }
    </style>
  </defs>
  <g>
    <path class="cls-1" d="M608.75,99.01c-2.44,1.12-5.03-.67-5.72-3.13-1.35-4.89.73-10.35,4.85-13.37,1.66-1.22,4.25-1.38,5.73.13,1.22,1.25,1.63,3.36,1.89,5.11,1-3.62,2.44-6.88,4.39-9.96-7.54-4.49-5.02-18.81-.58-19.67.81-.16,2.48.64,2.93,1.38l2.06,3.43c.18-3.6-.49-6.73,2.04-9.76,1.98,1.24,2.69,3.44,3.57,5.86l-.43-9.59c1.98,5.91,2.58,11.29,2.56,17.47l-1.4-3.33-.81,7.97,1.24,5.39c.5,2.16.35,4.11-.6,5.69-1.71,2.86-1.05,6.47-4.36,9.11l-1.16-4.53c-1.06,2.82-2.06,5.3-3.78,7.48-1,1.26-3.51,1.71-4.45.14-.86-1.46-1.17-3.51-1.39-5.13-.82,3.94-2.69,7.53-6.57,9.32Z"/>
    <path class="cls-1" d="M595.55,82.91c-3.42,1.58-7.22-.48-8.63-3.45-2.82-5.95,1.56-12.31,5.92-12.83,2.07-.25,4.38.48,5.8,2.1,3.84,4.39,2.5,11.61-3.09,14.19Z"/>
    <path class="cls-1" d="M594.04,101.54c-3.93,1.09-7.36-1.54-7.69-5.29-.37-4.29,2.09-8.31,6.03-10.06,1.78-.79,4.19-.78,5.8.24,1.21.77,2.65,2.52,2.9,4.41.61,4.69-2.3,9.39-7.03,10.7Z"/>
    <path class="cls-1" d="M612.62,78.69c-1.08,1.36-2.71,2.26-4.01,2.32-1.48.07-3.2-.85-4.24-2.23-3.16-4.19-3.01-10.28.49-14.21,1.09-1.22,2.79-1.97,4.27-1.9,1.21.06,2.92,1.1,3.81,2.39,2.78,4,2.83,9.64-.32,13.63Z"/>
    <path class="cls-1" d="M596.59,60.8c-1.99,3.51-6.13,3.95-9.07,1.67-2.23-1.73-3.49-4.07-3.52-6.82-.03-2.4,1.01-5.23,3.43-6.62,2.94-1.69,6.42-.24,8.28,2.36,1.99,2.77,2.67,6.24.88,9.41Z"/>
    <path class="cls-1" d="M572.28,102.47c-2.75-1.14-3.9-3.81-3.81-6.2.1-2.67,1.5-5.04,3.9-6.46,2.85-1.69,6.34-1.61,8.62.56,2.42,2.31,2.76,5.85.84,8.92s-5.92,4.68-9.54,3.18Z"/>
    <path class="cls-1" d="M610.83,57.16c-.32,1.81-1.86,3.48-3.01,3.92-1.76.68-3.93.25-5.3-1.07-5.21-5.04-4.35-13.53-.33-14.9,4.5-1.54,9.86,5.24,8.64,12.05Z"/>
    <path class="cls-1" d="M580.64,56.65c.89,3.52-.93,6.73-3.61,7.87-3.45,1.46-6.86-.13-8.48-3.36-1.95-3.87-.27-8.97,4.21-10.04,3.67-.87,6.96,1.93,7.88,5.54Z"/>
    <path class="cls-1" d="M590.36,117.31c-1.8.41-3.73-.32-4.66-1.35-.85-.94-1.26-3-.78-4.48,1.9-5.94,9.04-9.34,12.55-6.15.83.76,1.41,2.85,1.07,4.11-1.04,3.88-4.01,6.92-8.18,7.86Z"/>
    <path class="cls-1" d="M557.41,84.32c-3.8.27-6.49-2.82-6.79-5.99-.33-3.52,2.15-6.93,5.87-7.2s6.57,2.61,6.84,5.87c.3,3.58-1.87,7.03-5.92,7.32Z"/>
    <path class="cls-1" d="M555.65,102.74c-2.54-.51-4.39-2.57-4.89-4.38-.73-2.62.19-5.13,2.24-6.69,2.52-1.9,5.61-1.9,7.95-.07s3.15,4.81,2.02,7.33-3.99,4.48-7.33,3.81Z"/>
    <path class="cls-1" d="M615.23,41.49c6.98,5.72,6.47,15.48,2.89,16.44-5.38,1.44-10.57-13.84-5.82-16.76.59-.36,2.35-.15,2.93.32Z"/>
    <path class="cls-1" d="M620.85,103.07c-1.63,3.61-4.94,8.77-7.88,8.69-2.07-.06-.89-8.58,4.97-14.5.83-.84,2.64-1.48,3.78-1.14.3,1.88.13,3.78-.13,5.67,1.8-3.46,2.5-7.99,6.29-10.56-.88,6.31-3.38,11.9-7.33,16.57-.08-1.75.12-3.08.29-4.74Z"/>
    <path class="cls-1" d="M580.57,114.54c-1.84,2.98-4.91,4.37-8.29,4.01-1.28-.14-2.93-1.19-3.52-2.08-.82-1.23-1.03-3.21-.43-4.6,1.57-3.64,5.29-5.55,9.18-4.79,1.54.3,3.07,1.51,3.49,2.66.55,1.49.48,3.32-.44,4.8Z"/>
    <path class="cls-1" d="M612.3,104.08c-1.13,7.45-8.09,12.57-10.9,10.67-3.37-2.28-.6-10.59,6.36-14.21.72-.38,2.63-.21,3.29.21.75.48,1.41,2.25,1.25,3.33Z"/>
    <path class="cls-1" d="M591.79,41.49c-.65,3.22-3.62,4.2-6.2,3.14-3.91-1.61-6.01-6.19-4.77-10.25.64-2.1,2.78-3.24,5-2.47,3.75,1.3,6.79,5.51,5.96,9.59Z"/>
    <path class="cls-1" d="M561.05,54.52c1.71,2.08,2.2,4.63,1.02,6.92-.98,1.89-3.08,3.67-5.69,3.31-2.37-.32-4.32-2.19-4.79-3.83-.76-2.67-.26-4.94,1.42-6.73,2.27-2.42,5.83-2.37,8.05.33Z"/>
    <path class="cls-1" d="M596.81,29.02c6.2,2.6,8.87,10.23,5.92,12.99-.82.77-2.7,1.1-3.81.49-6.25-3.41-7.31-11.5-4.91-13.26.5-.37,2.2-.47,2.8-.22Z"/>
    <path class="cls-1" d="M575.34,45c-1.45,1.32-3.9,1.25-5.5.4-1.37-.73-2.63-2.28-3.11-4.09-.72-2.67.01-5.72,2.5-7.02,2.14-1.13,4.37.02,5.89,1.62,2.34,2.47,3.15,6.44.24,9.09Z"/>
    <path class="cls-1" d="M580.55,82.33c-2.26,2.22-5.17,2.94-7.96,1.67-2.26-1.03-4.08-3.37-4.19-6.38-.09-2.63,1.07-5.03,2.87-6.52,2-1.65,4.63-2.07,7.21-1.1,2.39.91,3.81,3.2,4.26,5.28.56,2.62-.21,5.09-2.19,7.03ZM577.27,82.85l.16-3.78,3.78-.23.07-3.43-3.89-.09-.1-3.84-3.35-.04-.11,3.95-4,.07v3.45s4.05.02,4.05.02l.05,3.99,3.34-.06Z"/>
    <path class="cls-1" d="M562.64,113.99c-.31,2.93-2.97,4.33-5.15,4.55-2.6.26-5.27-.89-6.22-3.54-1.2-3.3,1.37-6.07,4.69-6.54s7.1,1.56,6.68,5.53Z"/>
    <path class="cls-1" d="M604.97,25.82c7.32,3.74,9.45,12.41,6.78,13.61-4.72,2.13-11.66-11.07-9.09-13.47.37-.35,1.81-.41,2.31-.15Z"/>
    <path class="cls-1" d="M543.67,76.95c.12,3.29-2.05,5.6-4.87,5.65-2.6.05-4.96-1.99-5.26-4.91s1.57-5.64,4.28-6.01c2.93-.4,5.73,1.84,5.86,5.27Z"/>
    <path class="cls-1" d="M543.14,98.46c-.58,1.48-2.35,2.65-3.55,2.77-3.58.36-6.65-2.79-6.31-6.34.16-1.64,1.67-3.53,3.59-4.04,1.77-.47,4,.5,5.02,1.56,1.48,1.54,2.16,3.75,1.25,6.06Z"/>
    <path class="cls-1" d="M618.97,36.98c2.74-2.58,10.67,14.18,6.35,16.53-3.05,1.66-9.24-13.81-6.35-16.53Z"/>
    <path class="cls-1" d="M592.98,120.74c1.84,1.82-1.73,7.99-8.13,9.02-.79.13-2.36-.47-2.83-.95-.54-.55-.66-2.16-.23-3,2.71-5.38,9.16-7.08,11.19-5.07Z"/>
    <path class="cls-1" d="M561.42,40.82c-.15,3.07-1.95,4.8-4.34,4.92s-4.38-1.46-4.77-4.18,1.03-5.97,4.06-6.33,5.19,2.63,5.04,5.58Z"/>
    <path class="cls-1" d="M577.7,126.8c-2.28,4.47-8.48,5.18-10.36,2.65-.6-.8-.61-2.79.02-3.68,2.98-4.21,8.86-4.28,10.42-1.74.35.56.25,2.13-.08,2.78Z"/>
    <path class="cls-1" d="M544.39,57.3c.17,2.01-.62,3.68-1.72,4.66-1.41,1.26-3.65,1.6-5.28.54-1.77-1.16-2.29-3.15-2-5.22.22-1.56,1.62-3.69,3.53-4.17,2.9-.72,5.21,1.08,5.46,4.19Z"/>
    <path class="cls-1" d="M605.73,119.12c-2.31,5.36-8.72,9.75-10.69,8.24-2.53-1.95,5.36-11.87,10.23-10.68.54.13.7,1.87.46,2.44Z"/>
    <path class="cls-1" d="M578.49,17.47c4.51,1.67,7.05,7.25,5.22,9.35-.53.6-2.21,1.1-3.05.77-5.29-2.05-6.69-8.37-4.52-9.94.42-.3,1.82-.38,2.35-.18Z"/>
    <path class="cls-1" d="M610.27,22.43c5.41,3.78,9.69,11.23,7.68,13.08s-10.2-8.51-9.61-12.9c.06-.44,1.56-.43,1.93-.17Z"/>
    <path class="cls-1" d="M593.8,25.26c-2.43,3.22-11.3-5.95-9.33-9.67,1.49-2.8,12.18,5.89,9.33,9.67Z"/>
    <path class="cls-1" d="M543.91,114.57c-.24,1.47-2.15,2.56-3.27,2.6-1.57.06-3.18-.46-4.46-1.55s-1.91-3.38-1.26-4.73c.79-1.64,2.69-2.47,4.56-2.07,2.6.55,4.99,2.47,4.44,5.75Z"/>
    <path class="cls-1" d="M572.33,24.56c.23,1.63-.64,3.02-1.76,3.68-.85.49-2.58.23-3.57-.53-2.14-1.65-2.87-4.33-2.17-6.89.38-1.39,2.03-2.31,3.47-1.68,2.04.9,3.67,2.88,4.03,5.43Z"/>
    <path class="cls-1" d="M560.2,129.74c-2.22,1.58-4.63,1.54-6.75.3-.7-.42-1.55-1.85-1.6-2.61-.07-.89.79-2.43,1.71-2.99,1.9-1.14,4.32-1.09,6.23-.18.73.35,1.67,1.72,1.79,2.43.14.8-.57,2.47-1.38,3.05Z"/>
    <path class="cls-1" d="M590.85,12.64c6.9.45,12.54,9.53,10.56,10.33-3.15,1.27-10.13-5.56-10.56-10.33Z"/>
    <path class="cls-1" d="M544.44,42.93c-.85.92-2.25,1.43-3.25,1.35-.89-.07-2.26-1.19-2.55-2.29-.77-2.89,1.01-6.37,4.25-6.29,1.28.03,2.68,1.9,2.83,2.95.17,1.22-.23,3.13-1.28,4.27Z"/>
    <path class="cls-1" d="M524.74,74.52c.44,2.64-1.08,5.07-3.64,4.93-1.15-.06-2.65-1.49-3.03-2.46-.51-1.3-.33-3.44.64-4.68.69-.88,2.44-1.22,3.56-.95,1.01.24,2.21,1.61,2.47,3.16Z"/>
    <path class="cls-1" d="M604.66,124.92c.09-2.92,1.94-5,3.53-7.01,1.87-2.37,3.41-4.17,6.71-5.39l-.53,3.58,5.68-6.78c-1.44,3.68-4.04,6.39-6.32,9.43l-.82-.95c-.39-.45-3.71,5.77-8.26,7.12Z"/>
    <path class="cls-1" d="M523.38,97.48c-2.05,1.66-4.49.13-5.45-1.83-.84-1.71-.88-4.25,1.62-5.29,1.35-.56,3.54.72,4.19,1.86.86,1.5,1.33,3.89-.36,5.26Z"/>
    <path class="cls-1" d="M559.81,24.11c.03,1.32-.41,2.72-1.02,3.38-.55.59-2.47,1.02-3.17.59-1.56-.96-2.13-2.5-2.09-3.98s.84-3.6,2.44-3.98c2.23-.53,3.79,1.64,3.84,3.99Z"/>
    <path class="cls-1" d="M595.16,10.24c4.22.17,10.38,5.58,11.38,9.05.85,2.94-8.75-2.89-11.38-9.05Z"/>
    <path class="cls-1" d="M526.9,55.42c.3,2.65-1.75,5.16-4.21,4.41-2.3-.69-2.52-3.6-1.3-5.49.61-.94,1.9-1.77,2.87-1.73,1.31.05,2.47,1.23,2.64,2.81Z"/>
    <path class="cls-1" d="M545.06,127.47c-.18,2.8-3.34,2.74-5.17,1.83s-3.42-2.69-1.9-4.69c.73-.96,3.05-.97,4.22-.52,1.07.41,2.96,1.82,2.85,3.39Z"/>
    <path class="cls-1" d="M577.51,138.63c-.32-.25-1.14-1.19-.9-1.47l1.05-1.21c2.12-2.45,5.46-4.47,8.88-3.04-1.84,3.5-5.2,5.4-9.03,5.71Z"/>
    <path class="cls-1" d="M573.23,135.3c.44,3.1-5.61,5.53-8.01,3.49-.3-.25-.15-1.27.09-1.76,1.14-2.38,5.95-4.08,7.92-1.73Z"/>
    <path class="cls-1" d="M628.57,48.66c-3.49-4.9-5.9-10.17-6.61-16.14,3.99,4.41,6.36,10.37,6.61,16.14Z"/>
    <path class="cls-1" d="M525.93,112.98c-.11.68-1.57,1.69-2.15,1.56-.71-.15-1.87-.71-2.57-1.27-1.37-1.11-2.35-3.28-.72-4.73.79-.71,3.05-.22,3.99.6.82.7,1.73,2.19,1.45,3.84Z"/>
    <path class="cls-1" d="M620.61,31.24c-4.26-2.95-7.51-7.59-9.54-12.62,4.52,2.6,8.05,7.21,9.54,12.62Z"/>
    <path class="cls-1" d="M574.01,12.85c-3.35-.92-5.57-3.69-5.75-7.06,6.05.16,8.4,7.78,5.75,7.06Z"/>
    <path class="cls-1" d="M573.51,4.47c6.08.42,10.69,7.72,8.18,7.15-3.04-.69-6.98-3.71-8.18-7.15Z"/>
    <path class="cls-1" d="M596.86,130.25c-2.52,3.08-6.05,6.01-10.3,6.66,1.36-3.29,8.07-8.47,10.3-6.66Z"/>
    <path class="cls-1" d="M559.82,137c.21,2.06-2,2.6-3.25,2.65s-3.57-.35-3.43-2.4c.08-1.13,2.01-2.09,3.03-2.15,1.13-.07,3.5.48,3.65,1.91Z"/>
    <path class="cls-1" d="M547.42,21.92c.82,2.41-.83,4.93-3.11,4.9-.74-.01-1.84-1.58-1.74-2.27.29-1.98,1.36-3.72,2.99-4.11.54-.13,1.64.85,1.86,1.49Z"/>
    <path class="cls-1" d="M577.42,3.09c3.47-.13,9.2,3.52,10.39,6.09.8,1.73-6.77-1.51-10.39-6.09Z"/>
    <path class="cls-1" d="M597.45,7.66c3.33.89,9.73,5.22,11.01,8.82-4.38-2.01-7.83-4.84-11.01-8.82Z"/>
    <path class="cls-1" d="M566.66,11.53c0,.66-.54,1.78-.93,1.75s-1.35-.24-1.73-.48c-1.68-1.05-3.1-4.46-1.33-5.98,1.81-.08,4.03,2.5,4,4.71Z"/>
    <path class="cls-1" d="M530.28,36.46c.55.7.24,2.73-.29,3.51-.47.69-2.08,1.69-2.92,1.32-1.97-.88-1.36-3.29-.27-4.59.8-.95,2.25-1.8,3.48-.23Z"/>
    <path class="cls-1" d="M591.24,7.29c-3.91-.43-7.64-3-11.19-5.83,4.03.55,8.11,2.25,11.19,5.83Z"/>
    <path class="cls-1" d="M529.13,126.47c-.26,1.51-2.46.9-3.37.29-.84-.57-2.08-2.39-1.11-3.16,1.48-1.17,4.82.92,4.48,2.88Z"/>
    <path class="cls-1" d="M556.31,12.94c-.89.13-1.69-1.87-1.61-2.76.08-.8.67-2.5,1.69-2.59.74-.06,1.66,1.55,1.8,2.28.19.99.09,2.78-1.88,3.07Z"/>
    <path class="cls-1" d="M546.64,137.88c.09.89-2.28,1.13-3.2.7s-2.06-1.51-2.01-2.55c1.39-1.36,4.92-.98,5.21,1.85Z"/>
    <path class="cls-1" d="M604.52,126.67c-2.54,3.23-5.88,5.52-9.73,7.41,2.73-3.12,5.65-5.69,9.73-7.41Z"/>
    <path class="cls-1" d="M592.03,4.46c-3.29-.44-6.67-2.12-9.97-4.46,3.51.64,6.77,1.93,9.97,4.46Z"/>
    <path class="cls-1" d="M506.71,93.29c-.83.45-2.32-.41-2.45-1.08-.18-.91,0-2.14.59-3.1.68.29,1.61.87,2.03,1.27.49.47.45,2.57-.17,2.91Z"/>
    <path class="cls-1" d="M506.34,74.52c-.72.23-1.91-1.24-1.9-1.88s.61-2.03,1.37-2.33c.56-.23,1.68.92,1.86,1.49.23.73-.11,2.34-1.33,2.72Z"/>
    <path class="cls-1" d="M535.8,22.05c-.27,1.42-1.51,2.55-2.6,2.07-.79-.35-.02-2.44.66-2.84l1.09-.64c.31-.18.9,1.05.84,1.41Z"/>
    <path class="cls-1" d="M567.89,142.34c-1.02,1.59-3.15,2.2-5.42,1.66,1.2-1.58,2.9-2.29,5.42-1.66Z"/>
    <path class="cls-1" d="M577.25,140.8c-1.92,1.81-4.12,2.4-6.73,2.61,1.77-1.71,4.11-2.59,6.73-2.61Z"/>
    <path class="cls-1" d="M509.31,55.31c-.46,0-1.13-1.5-.95-1.9.23-.5,1.14-1.37,1.75-1.45.5-.06,1.08,1.36,1,1.86s-1.04,1.5-1.79,1.49Z"/>
    <path class="cls-1" d="M548.18,11.76c-1.35-.52-.07-3.7,1.36-3.59,1.03.44.55,3.45-1.36,3.59Z"/>
  </g>
  <g>
    <path class="cls-1" d="M34.3,84.34c0,2.61-.48,4.94-1.44,6.98-.96,2.04-2.3,3.77-4.01,5.19-1.71,1.42-3.72,2.49-6.03,3.21-2.31.72-4.8,1.08-7.48,1.08-1.87,0-3.6-.16-5.19-.47-1.59-.32-3.02-.7-4.27-1.16s-2.3-.93-3.15-1.42c-.85-.49-1.44-.91-1.77-1.25-.33-.34-.58-.78-.73-1.31-.16-.53-.24-1.24-.24-2.13,0-.63.03-1.16.09-1.57.06-.42.14-.75.26-1.01s.26-.44.43-.54c.17-.1.37-.15.6-.15.4,0,.97.24,1.7.73s1.67,1.02,2.82,1.59c1.15.58,2.54,1.11,4.16,1.62,1.62.5,3.5.75,5.62.75,1.61,0,3.08-.21,4.42-.65,1.34-.43,2.48-1.04,3.45-1.83.96-.79,1.7-1.76,2.22-2.91.52-1.15.78-2.46.78-3.92,0-1.58-.36-2.93-1.08-4.05-.72-1.12-1.67-2.1-2.84-2.95-1.18-.85-2.52-1.62-4.03-2.33-1.51-.7-3.05-1.42-4.63-2.15-1.58-.73-3.12-1.54-4.61-2.43-1.49-.89-2.83-1.94-4.01-3.15-1.18-1.21-2.13-2.62-2.87-4.24-.73-1.62-1.1-3.57-1.1-5.84s.42-4.4,1.27-6.23c.85-1.82,2.02-3.35,3.53-4.59,1.51-1.23,3.3-2.18,5.39-2.82,2.08-.65,4.33-.97,6.74-.97,1.23,0,2.48.11,3.73.32,1.25.22,2.43.5,3.53.86,1.11.36,2.09.76,2.95,1.21.86.45,1.43.8,1.7,1.08.27.27.45.49.54.65.09.16.16.36.22.6.06.24.1.54.13.88.03.34.04.79.04,1.34s-.02.98-.06,1.38c-.04.4-.11.74-.19,1.01-.09.27-.21.47-.37.6-.16.13-.34.19-.54.19-.32,0-.81-.2-1.49-.6-.68-.4-1.5-.85-2.48-1.36-.98-.5-2.13-.96-3.47-1.38-1.34-.42-2.84-.62-4.5-.62-1.55,0-2.9.21-4.05.62-1.15.42-2.1.97-2.84,1.66-.75.69-1.31,1.51-1.68,2.46-.37.95-.56,1.95-.56,3.02,0,1.55.36,2.89,1.08,4.01.72,1.12,1.67,2.11,2.87,2.97,1.19.86,2.55,1.65,4.07,2.37,1.52.72,3.07,1.44,4.65,2.18,1.58.73,3.13,1.54,4.65,2.41,1.52.88,2.88,1.91,4.07,3.1,1.19,1.19,2.15,2.6,2.89,4.22s1.1,3.54,1.1,5.75Z"/>
    <path class="cls-1" d="M97.64,98.34c-.11.4-.29.73-.52.97-.23.24-.55.43-.95.56-.4.13-.9.22-1.49.28-.59.06-1.31.09-2.18.09s-1.64-.03-2.26-.09c-.62-.06-1.13-.15-1.53-.28-.4-.13-.7-.32-.9-.56-.2-.24-.36-.57-.47-.97l-11.68-42.1h-.09l-10.77,42.1c-.09.4-.23.73-.43.97-.2.24-.49.43-.86.56-.37.13-.85.22-1.44.28-.59.06-1.34.09-2.26.09s-1.74-.03-2.37-.09c-.63-.06-1.15-.15-1.55-.28-.4-.13-.71-.32-.93-.56-.22-.24-.37-.57-.45-.97l-14.74-51.49c-.17-.66-.27-1.18-.28-1.55-.01-.37.1-.66.34-.86.24-.2.64-.33,1.19-.39.55-.06,1.28-.09,2.2-.09s1.59.02,2.11.06c.52.04.91.12,1.18.24.27.12.46.27.56.47.1.2.18.46.24.78l12.54,46.71h.04l11.89-46.62c.09-.32.19-.58.32-.8.13-.21.34-.38.62-.5.29-.11.7-.2,1.23-.26.53-.06,1.23-.09,2.09-.09.8,0,1.44.03,1.92.09.47.06.85.14,1.14.26.29.12.5.28.62.5.13.22.24.48.32.8l12.8,46.62h.09l12.28-46.66c.09-.29.17-.54.26-.75.09-.21.27-.38.54-.5.27-.11.66-.2,1.16-.26.5-.06,1.17-.09,2-.09s1.54.04,2.05.11c.5.07.87.21,1.1.41.23.2.34.49.32.86-.01.37-.09.89-.24,1.55l-14.78,51.45Z"/>
    <path class="cls-1" d="M130.17,98.86c0,.23-.06.43-.17.6-.12.17-.32.31-.6.41-.29.1-.67.19-1.14.26-.47.07-1.07.11-1.79.11s-1.28-.04-1.77-.11c-.49-.07-.88-.16-1.16-.26-.29-.1-.49-.24-.6-.41-.11-.17-.17-.37-.17-.6v-53.52c0-.23.06-.43.19-.6.13-.17.34-.31.65-.41s.69-.19,1.16-.26c.47-.07,1.04-.11,1.7-.11.72,0,1.31.04,1.79.11.47.07.85.16,1.14.26.29.1.49.24.6.41.11.17.17.37.17.6v53.52Z"/>
    <path class="cls-1" d="M174.94,84.34c0,2.61-.48,4.94-1.44,6.98-.96,2.04-2.3,3.77-4.01,5.19-1.71,1.42-3.72,2.49-6.03,3.21-2.31.72-4.8,1.08-7.48,1.08-1.87,0-3.6-.16-5.19-.47-1.59-.32-3.02-.7-4.27-1.16s-2.3-.93-3.15-1.42c-.85-.49-1.44-.91-1.77-1.25-.33-.34-.58-.78-.73-1.31-.16-.53-.24-1.24-.24-2.13,0-.63.03-1.16.09-1.57.06-.42.14-.75.26-1.01s.26-.44.43-.54c.17-.1.37-.15.6-.15.4,0,.97.24,1.7.73s1.67,1.02,2.82,1.59c1.15.58,2.54,1.11,4.16,1.62,1.62.5,3.5.75,5.62.75,1.61,0,3.08-.21,4.42-.65,1.34-.43,2.48-1.04,3.45-1.83.96-.79,1.7-1.76,2.22-2.91.52-1.15.78-2.46.78-3.92,0-1.58-.36-2.93-1.08-4.05-.72-1.12-1.67-2.1-2.84-2.95-1.18-.85-2.52-1.62-4.03-2.33-1.51-.7-3.05-1.42-4.63-2.15-1.58-.73-3.12-1.54-4.61-2.43-1.49-.89-2.83-1.94-4.01-3.15-1.18-1.21-2.13-2.62-2.87-4.24-.73-1.62-1.1-3.57-1.1-5.84s.42-4.4,1.27-6.23c.85-1.82,2.02-3.35,3.53-4.59,1.51-1.23,3.3-2.18,5.39-2.82,2.08-.65,4.33-.97,6.74-.97,1.23,0,2.48.11,3.73.32,1.25.22,2.43.5,3.53.86,1.11.36,2.09.76,2.95,1.21.86.45,1.43.8,1.7,1.08.27.27.45.49.54.65.09.16.16.36.22.6.06.24.1.54.13.88.03.34.04.79.04,1.34s-.02.98-.06,1.38c-.04.4-.11.74-.19,1.01-.09.27-.21.47-.37.6-.16.13-.34.19-.54.19-.32,0-.81-.2-1.49-.6-.68-.4-1.5-.85-2.48-1.36-.98-.5-2.13-.96-3.47-1.38-1.34-.42-2.84-.62-4.5-.62-1.55,0-2.9.21-4.05.62-1.15.42-2.1.97-2.84,1.66-.75.69-1.31,1.51-1.68,2.46-.37.95-.56,1.95-.56,3.02,0,1.55.36,2.89,1.08,4.01.72,1.12,1.67,2.11,2.87,2.97,1.19.86,2.55,1.65,4.07,2.37,1.52.72,3.07,1.44,4.65,2.18,1.58.73,3.13,1.54,4.65,2.41,1.52.88,2.88,1.91,4.07,3.1,1.19,1.19,2.15,2.6,2.89,4.22s1.1,3.54,1.1,5.75Z"/>
    <path class="cls-1" d="M215.49,84.34c0,2.61-.48,4.94-1.44,6.98-.96,2.04-2.3,3.77-4.01,5.19-1.71,1.42-3.72,2.49-6.03,3.21-2.31.72-4.8,1.08-7.48,1.08-1.87,0-3.6-.16-5.19-.47-1.59-.32-3.02-.7-4.27-1.16s-2.3-.93-3.15-1.42c-.85-.49-1.44-.91-1.77-1.25-.33-.34-.58-.78-.73-1.31-.16-.53-.24-1.24-.24-2.13,0-.63.03-1.16.09-1.57.06-.42.14-.75.26-1.01s.26-.44.43-.54c.17-.1.37-.15.6-.15.4,0,.97.24,1.7.73s1.67,1.02,2.82,1.59c1.15.58,2.54,1.11,4.16,1.62,1.62.5,3.5.75,5.62.75,1.61,0,3.08-.21,4.42-.65,1.34-.43,2.48-1.04,3.45-1.83.96-.79,1.7-1.76,2.22-2.91.52-1.15.78-2.46.78-3.92,0-1.58-.36-2.93-1.08-4.05-.72-1.12-1.67-2.1-2.84-2.95-1.18-.85-2.52-1.62-4.03-2.33-1.51-.7-3.05-1.42-4.63-2.15-1.58-.73-3.12-1.54-4.61-2.43-1.49-.89-2.83-1.94-4.01-3.15-1.18-1.21-2.13-2.62-2.87-4.24-.73-1.62-1.1-3.57-1.1-5.84s.42-4.4,1.27-6.23c.85-1.82,2.02-3.35,3.53-4.59,1.51-1.23,3.3-2.18,5.39-2.82,2.08-.65,4.33-.97,6.74-.97,1.23,0,2.48.11,3.73.32,1.25.22,2.43.5,3.53.86,1.11.36,2.09.76,2.95,1.21.86.45,1.43.8,1.7,1.08.27.27.45.49.54.65.09.16.16.36.22.6.06.24.1.54.13.88.03.34.04.79.04,1.34s-.02.98-.06,1.38c-.04.4-.11.74-.19,1.01-.09.27-.21.47-.37.6-.16.13-.34.19-.54.19-.32,0-.81-.2-1.49-.6-.68-.4-1.5-.85-2.48-1.36-.98-.5-2.13-.96-3.47-1.38-1.34-.42-2.84-.62-4.5-.62-1.55,0-2.9.21-4.05.62-1.15.42-2.1.97-2.84,1.66-.75.69-1.31,1.51-1.68,2.46-.37.95-.56,1.95-.56,3.02,0,1.55.36,2.89,1.08,4.01.72,1.12,1.67,2.11,2.87,2.97,1.19.86,2.55,1.65,4.07,2.37,1.52.72,3.07,1.44,4.65,2.18,1.58.73,3.13,1.54,4.65,2.41,1.52.88,2.88,1.91,4.07,3.1,1.19,1.19,2.15,2.6,2.89,4.22s1.1,3.54,1.1,5.75Z"/>
    <path class="cls-1" d="M233.5,98.86c0,.23-.06.43-.17.6-.12.17-.32.31-.6.41-.29.1-.67.19-1.14.26-.47.07-1.07.11-1.79.11s-1.28-.04-1.77-.11c-.49-.07-.88-.16-1.16-.26-.29-.1-.49-.24-.6-.41-.11-.17-.17-.37-.17-.6v-53.52c0-.23.06-.43.19-.6.13-.17.34-.31.65-.41s.69-.19,1.16-.26c.47-.07,1.04-.11,1.7-.11.72,0,1.31.04,1.79.11.47.07.85.16,1.14.26.29.1.49.24.6.41.11.17.17.37.17.6v53.52Z"/>
    <path class="cls-1" d="M290.46,96.92c0,.58-.1,1.06-.29,1.46-.19.4-.45.73-.76.99-.31.26-.66.45-1.05.56-.39.11-.77.17-1.16.17h-2.45c-.77,0-1.45-.08-2.03-.24-.58-.16-1.13-.45-1.65-.86-.52-.42-1.04-.98-1.56-1.7-.52-.72-1.07-1.64-1.65-2.76l-17.01-31.71c-.89-1.64-1.79-3.35-2.69-5.15-.9-1.79-1.74-3.54-2.52-5.24h-.09c.06,2.07.1,4.18.13,6.33.03,2.15.04,4.29.04,6.42v33.65c0,.2-.06.39-.18.58-.12.19-.33.33-.61.43s-.67.19-1.14.26c-.47.07-1.07.11-1.8.11s-1.33-.04-1.8-.11c-.47-.07-.84-.16-1.11-.26-.27-.1-.47-.24-.59-.43-.12-.19-.18-.38-.18-.58v-51.45c0-1.15.33-1.97.98-2.46s1.36-.73,2.13-.73h3.65c.86,0,1.58.07,2.16.21.58.14,1.1.38,1.56.71.46.33.9.79,1.33,1.38.43.59.88,1.33,1.35,2.22l13.08,24.47c.81,1.49,1.58,2.95,2.33,4.37.75,1.42,1.47,2.82,2.17,4.2.69,1.38,1.38,2.74,2.06,4.07.68,1.34,1.35,2.68,2.02,4.03h.04c-.06-2.27-.09-4.63-.11-7.09-.01-2.46-.02-4.82-.02-7.09v-30.25c0-.2.06-.39.18-.56.12-.17.33-.32.61-.45.29-.13.67-.22,1.14-.28.47-.06,1.08-.09,1.84-.09.67,0,1.24.03,1.73.09.48.06.86.15,1.14.28.27.13.47.28.59.45.12.17.18.36.18.56v51.45Z"/>
    <path class="cls-1" d="M340.23,47.41c0,.55-.03,1.02-.09,1.42s-.15.73-.28.97c-.13.24-.29.42-.47.54-.19.12-.4.17-.62.17h-15.68v48.35c0,.23-.06.43-.17.6-.12.17-.32.31-.6.41s-.67.19-1.14.26c-.47.07-1.07.11-1.79.11s-1.28-.04-1.77-.11c-.49-.07-.88-.16-1.16-.26s-.49-.24-.6-.41c-.12-.17-.17-.37-.17-.6v-48.35h-15.68c-.23,0-.44-.06-.62-.17-.19-.11-.34-.29-.45-.54-.12-.24-.21-.57-.28-.97-.07-.4-.11-.88-.11-1.42s.04-1.03.11-1.44c.07-.42.17-.75.28-1.01.11-.26.27-.45.45-.56.19-.11.39-.17.62-.17h38.78c.23,0,.44.06.62.17.19.12.34.3.47.56.13.26.22.6.28,1.01.06.42.09.9.09,1.44Z"/>
    <path class="cls-1" d="M379.31,96.92c0,.52-.03.97-.09,1.36s-.16.71-.3.97-.31.45-.5.56c-.19.11-.4.17-.62.17h-26.76c-.66,0-1.29-.22-1.88-.67s-.88-1.23-.88-2.35v-49.72c0-1.12.29-1.9.88-2.35s1.21-.67,1.88-.67h26.46c.23,0,.44.06.62.17.19.12.34.3.45.56.12.26.21.58.28.97.07.39.11.87.11,1.44,0,.52-.04.97-.11,1.36-.07.39-.17.7-.28.95-.11.25-.27.42-.45.54-.19.12-.4.17-.62.17h-21.8v17.49h18.7c.23,0,.44.06.62.19.19.13.34.31.47.54.13.23.22.55.28.95.06.4.09.88.09,1.42s-.03.96-.09,1.34c-.06.37-.15.67-.28.91-.13.23-.29.39-.47.5s-.39.15-.62.15h-18.7v19.95h22.1c.23,0,.44.06.62.17.19.12.35.29.5.54.14.25.24.56.3.95s.09.87.09,1.44Z"/>
    <path class="cls-1" d="M420.29,96.75c0,.58-.03,1.06-.09,1.44-.06.39-.15.72-.28.99-.13.27-.29.47-.47.6-.19.13-.41.19-.67.19h-24.65c-.66,0-1.29-.22-1.87-.67s-.88-1.23-.88-2.35v-51.62c0-.23.06-.43.17-.6.11-.17.32-.31.6-.41.29-.1.67-.19,1.16-.26.49-.07,1.08-.11,1.77-.11s1.31.04,1.79.11c.47.07.85.16,1.14.26s.49.24.6.41c.11.17.17.37.17.6v48.22h19.99c.26,0,.48.06.67.19.19.13.34.32.47.56.13.24.22.57.28.97.06.4.09.89.09,1.46Z"/>
    <path class="cls-1" d="M457.39,96.75c0,.58-.03,1.06-.09,1.44-.06.39-.15.72-.28.99-.13.27-.29.47-.47.6-.19.13-.41.19-.67.19h-24.65c-.66,0-1.29-.22-1.87-.67-.59-.45-.88-1.23-.88-2.35v-51.62c0-.23.06-.43.17-.6.11-.17.32-.31.6-.41s.67-.19,1.16-.26c.49-.07,1.08-.11,1.77-.11s1.31.04,1.79.11c.47.07.85.16,1.14.26s.49.24.6.41c.11.17.17.37.17.6v48.22h19.99c.26,0,.48.06.67.19.19.13.34.32.47.56.13.24.22.57.28.97.06.4.09.89.09,1.46Z"/>
  </g>
</svg>